<mxfile host="Electron" modified="2023-12-02T09:11:10.155Z" agent="Mozilla/5.0 (Windows NT 10.0; Win64; x64) AppleWebKit/537.36 (KHTML, like Gecko) draw.io/22.0.2 Chrome/114.0.5735.289 Electron/25.8.4 Safari/537.36" etag="5RGdlaYkyjt4JU029cWT" version="22.0.2" type="device">
  <diagram name="Page-1" id="929967ad-93f9-6ef4-fab6-5d389245f69c">
    <mxGraphModel dx="1418" dy="828" grid="1" gridSize="10" guides="1" tooltips="1" connect="1" arrows="1" fold="1" page="1" pageScale="1.5" pageWidth="1169" pageHeight="826" background="none" math="0" shadow="0">
      <root>
        <mxCell id="0" style=";html=1;" />
        <mxCell id="1" style=";html=1;" parent="0" />
        <mxCell id="vT6b_c9rovpt_9E858hW-1" value="" style="whiteSpace=wrap;html=1;aspect=fixed;" parent="1" vertex="1">
          <mxGeometry x="130" width="570" height="570" as="geometry" />
        </mxCell>
        <mxCell id="vT6b_c9rovpt_9E858hW-5" value="Пользователь" style="shape=umlActor;verticalLabelPosition=bottom;verticalAlign=top;html=1;" parent="1" vertex="1">
          <mxGeometry x="30" y="170" width="30" height="60" as="geometry" />
        </mxCell>
        <mxCell id="vT6b_c9rovpt_9E858hW-6" value="&lt;b&gt;«WebApp» &lt;br&gt;Приложение для изучения растений по географическим областям&lt;/b&gt;" style="text;html=1;strokeColor=none;fillColor=none;align=left;verticalAlign=middle;whiteSpace=wrap;rounded=0;" parent="1" vertex="1">
          <mxGeometry x="140" y="10" width="220" height="30" as="geometry" />
        </mxCell>
        <mxCell id="vT6b_c9rovpt_9E858hW-18" value="&lt;b style=&quot;border-color: var(--border-color);&quot;&gt;Знакомство с областями&lt;/b&gt;" style="ellipse;whiteSpace=wrap;html=1;" parent="1" vertex="1">
          <mxGeometry x="140" y="75" width="140" height="70" as="geometry" />
        </mxCell>
        <mxCell id="vT6b_c9rovpt_9E858hW-20" value="&lt;b style=&quot;border-color: var(--border-color);&quot;&gt;Выбор интересующей области&lt;/b&gt;&amp;nbsp;" style="ellipse;whiteSpace=wrap;html=1;" parent="1" vertex="1">
          <mxGeometry x="150" y="160" width="140" height="70" as="geometry" />
        </mxCell>
        <mxCell id="vT6b_c9rovpt_9E858hW-21" value="Поиск интересующей области по вводу названия" style="ellipse;whiteSpace=wrap;html=1;" parent="1" vertex="1">
          <mxGeometry x="330" y="150" width="140" height="70" as="geometry" />
        </mxCell>
        <mxCell id="vT6b_c9rovpt_9E858hW-22" value="Выбор интересующей области из выпадающего списка" style="ellipse;whiteSpace=wrap;html=1;" parent="1" vertex="1">
          <mxGeometry x="285" y="50" width="160" height="80" as="geometry" />
        </mxCell>
        <mxCell id="vT6b_c9rovpt_9E858hW-23" value="&lt;b style=&quot;border-color: var(--border-color);&quot;&gt;Знакомство с растениями из выбранной области&lt;/b&gt;" style="ellipse;whiteSpace=wrap;html=1;" parent="1" vertex="1">
          <mxGeometry x="135" y="375" width="150" height="70" as="geometry" />
        </mxCell>
        <mxCell id="vT6b_c9rovpt_9E858hW-24" value="&lt;b&gt;Сброс маркировок знакомства со всех растений из выбранной области&lt;/b&gt;" style="ellipse;whiteSpace=wrap;html=1;" parent="1" vertex="1">
          <mxGeometry x="290" y="230" width="160" height="80" as="geometry" />
        </mxCell>
        <mxCell id="vT6b_c9rovpt_9E858hW-25" value="&lt;b style=&quot;border-color: var(--border-color);&quot;&gt;Маркировка растения из выбранной области как увиденного в реальности&lt;/b&gt;" style="ellipse;whiteSpace=wrap;html=1;" parent="1" vertex="1">
          <mxGeometry x="287.5" y="310" width="180" height="90" as="geometry" />
        </mxCell>
        <mxCell id="vT6b_c9rovpt_9E858hW-29" value="" style="endArrow=none;html=1;rounded=0;entryX=0;entryY=0.5;entryDx=0;entryDy=0;" parent="1" target="vT6b_c9rovpt_9E858hW-18" edge="1">
          <mxGeometry width="50" height="50" relative="1" as="geometry">
            <mxPoint x="70" y="210" as="sourcePoint" />
            <mxPoint x="460" y="270" as="targetPoint" />
          </mxGeometry>
        </mxCell>
        <mxCell id="vT6b_c9rovpt_9E858hW-30" value="" style="endArrow=none;html=1;rounded=0;entryX=0;entryY=0.5;entryDx=0;entryDy=0;" parent="1" target="vT6b_c9rovpt_9E858hW-20" edge="1">
          <mxGeometry width="50" height="50" relative="1" as="geometry">
            <mxPoint x="70" y="210" as="sourcePoint" />
            <mxPoint x="460" y="270" as="targetPoint" />
          </mxGeometry>
        </mxCell>
        <mxCell id="vT6b_c9rovpt_9E858hW-31" value="" style="endArrow=none;html=1;rounded=0;entryX=0;entryY=0;entryDx=0;entryDy=0;" parent="1" target="vT6b_c9rovpt_9E858hW-23" edge="1">
          <mxGeometry width="50" height="50" relative="1" as="geometry">
            <mxPoint x="70" y="210" as="sourcePoint" />
            <mxPoint x="460" y="270" as="targetPoint" />
          </mxGeometry>
        </mxCell>
        <mxCell id="vT6b_c9rovpt_9E858hW-32" value="" style="endArrow=none;html=1;rounded=0;entryX=0;entryY=0;entryDx=0;entryDy=0;" parent="1" target="vT6b_c9rovpt_9E858hW-25" edge="1">
          <mxGeometry width="50" height="50" relative="1" as="geometry">
            <mxPoint x="70" y="210" as="sourcePoint" />
            <mxPoint x="460" y="270" as="targetPoint" />
          </mxGeometry>
        </mxCell>
        <mxCell id="vT6b_c9rovpt_9E858hW-33" value="&lt;b style=&quot;border-color: var(--border-color);&quot;&gt;Поиск растения по названию из выбранной области&lt;/b&gt;" style="ellipse;whiteSpace=wrap;html=1;" parent="1" vertex="1">
          <mxGeometry x="145" y="297.5" width="140" height="70" as="geometry" />
        </mxCell>
        <mxCell id="vT6b_c9rovpt_9E858hW-35" value="" style="endArrow=none;html=1;rounded=0;exitX=0;exitY=0;exitDx=0;exitDy=0;" parent="1" source="vT6b_c9rovpt_9E858hW-33" edge="1">
          <mxGeometry width="50" height="50" relative="1" as="geometry">
            <mxPoint x="410" y="320" as="sourcePoint" />
            <mxPoint x="70" y="210" as="targetPoint" />
          </mxGeometry>
        </mxCell>
        <mxCell id="vT6b_c9rovpt_9E858hW-36" value="" style="endArrow=none;html=1;rounded=0;entryX=0;entryY=0.5;entryDx=0;entryDy=0;" parent="1" target="vT6b_c9rovpt_9E858hW-24" edge="1">
          <mxGeometry width="50" height="50" relative="1" as="geometry">
            <mxPoint x="70" y="210" as="sourcePoint" />
            <mxPoint x="460" y="270" as="targetPoint" />
          </mxGeometry>
        </mxCell>
        <mxCell id="vT6b_c9rovpt_9E858hW-37" value="Разработчик" style="shape=umlActor;verticalLabelPosition=bottom;verticalAlign=top;html=1;outlineConnect=0;" parent="1" vertex="1">
          <mxGeometry x="760" y="210" width="30" height="60" as="geometry" />
        </mxCell>
        <mxCell id="vT6b_c9rovpt_9E858hW-38" value="Передача пути к файлу со списком областей" style="ellipse;whiteSpace=wrap;html=1;" parent="1" vertex="1">
          <mxGeometry x="547" y="10" width="140" height="70" as="geometry" />
        </mxCell>
        <mxCell id="vT6b_c9rovpt_9E858hW-39" value="Передача пути к папке с фотографиями растений" style="ellipse;whiteSpace=wrap;html=1;" parent="1" vertex="1">
          <mxGeometry x="440" y="90" width="160" height="80" as="geometry" />
        </mxCell>
        <mxCell id="vT6b_c9rovpt_9E858hW-40" value="Передача пути к файлу с биологическим описанием растений" style="ellipse;whiteSpace=wrap;html=1;" parent="1" vertex="1">
          <mxGeometry x="465" y="380" width="170" height="85" as="geometry" />
        </mxCell>
        <mxCell id="vT6b_c9rovpt_9E858hW-41" value="Передача пути к файлу с описанием применений растений в качестве лекарств" style="ellipse;whiteSpace=wrap;html=1;" parent="1" vertex="1">
          <mxGeometry x="470" y="290" width="197" height="85" as="geometry" />
        </mxCell>
        <mxCell id="vT6b_c9rovpt_9E858hW-42" value="Передача пути к файлу с описанием применений растений в качестве яда" style="ellipse;whiteSpace=wrap;html=1;" parent="1" vertex="1">
          <mxGeometry x="520" y="470" width="180" height="90" as="geometry" />
        </mxCell>
        <mxCell id="vT6b_c9rovpt_9E858hW-43" value="Передача идентификаторв элемента-контейнера для встраивания приложения на страницу сайта" style="ellipse;whiteSpace=wrap;html=1;" parent="1" vertex="1">
          <mxGeometry x="450" y="180" width="200" height="100" as="geometry" />
        </mxCell>
        <mxCell id="vT6b_c9rovpt_9E858hW-46" value="" style="endArrow=none;html=1;rounded=0;entryX=0.5;entryY=1;entryDx=0;entryDy=0;" parent="1" target="vT6b_c9rovpt_9E858hW-38" edge="1">
          <mxGeometry width="50" height="50" relative="1" as="geometry">
            <mxPoint x="740" y="240" as="sourcePoint" />
            <mxPoint x="510" y="90" as="targetPoint" />
          </mxGeometry>
        </mxCell>
        <mxCell id="vT6b_c9rovpt_9E858hW-47" value="" style="endArrow=none;html=1;rounded=0;exitX=1;exitY=0.5;exitDx=0;exitDy=0;" parent="1" source="vT6b_c9rovpt_9E858hW-43" edge="1">
          <mxGeometry width="50" height="50" relative="1" as="geometry">
            <mxPoint x="460" y="300" as="sourcePoint" />
            <mxPoint x="740" y="240" as="targetPoint" />
          </mxGeometry>
        </mxCell>
        <mxCell id="vT6b_c9rovpt_9E858hW-48" value="" style="endArrow=none;html=1;rounded=0;exitX=1;exitY=0.5;exitDx=0;exitDy=0;" parent="1" source="vT6b_c9rovpt_9E858hW-40" edge="1">
          <mxGeometry width="50" height="50" relative="1" as="geometry">
            <mxPoint x="460" y="390" as="sourcePoint" />
            <mxPoint x="740" y="240" as="targetPoint" />
          </mxGeometry>
        </mxCell>
        <mxCell id="vT6b_c9rovpt_9E858hW-49" value="" style="endArrow=none;html=1;rounded=0;exitX=1;exitY=0.5;exitDx=0;exitDy=0;" parent="1" source="vT6b_c9rovpt_9E858hW-41" edge="1">
          <mxGeometry width="50" height="50" relative="1" as="geometry">
            <mxPoint x="460" y="390" as="sourcePoint" />
            <mxPoint x="740" y="240" as="targetPoint" />
          </mxGeometry>
        </mxCell>
        <mxCell id="vT6b_c9rovpt_9E858hW-50" value="" style="endArrow=none;html=1;rounded=0;exitX=1;exitY=0;exitDx=0;exitDy=0;" parent="1" source="vT6b_c9rovpt_9E858hW-42" edge="1">
          <mxGeometry width="50" height="50" relative="1" as="geometry">
            <mxPoint x="460" y="420" as="sourcePoint" />
            <mxPoint x="740" y="240" as="targetPoint" />
          </mxGeometry>
        </mxCell>
        <mxCell id="vT6b_c9rovpt_9E858hW-51" value="" style="endArrow=none;html=1;rounded=0;entryX=0.985;entryY=0.557;entryDx=0;entryDy=0;entryPerimeter=0;" parent="1" target="vT6b_c9rovpt_9E858hW-39" edge="1">
          <mxGeometry width="50" height="50" relative="1" as="geometry">
            <mxPoint x="740" y="240" as="sourcePoint" />
            <mxPoint x="510" y="170" as="targetPoint" />
          </mxGeometry>
        </mxCell>
        <mxCell id="vT6b_c9rovpt_9E858hW-52" value="Просмотр фотографии растения" style="ellipse;whiteSpace=wrap;html=1;" parent="1" vertex="1">
          <mxGeometry x="320" y="407.5" width="115" height="57.5" as="geometry" />
        </mxCell>
        <mxCell id="vT6b_c9rovpt_9E858hW-53" value="Просмотр биологического описания растения" style="ellipse;whiteSpace=wrap;html=1;" parent="1" vertex="1">
          <mxGeometry x="380" y="480" width="135" height="67.5" as="geometry" />
        </mxCell>
        <mxCell id="vT6b_c9rovpt_9E858hW-54" value="Просмотр использования растения как лекарство" style="ellipse;whiteSpace=wrap;html=1;" parent="1" vertex="1">
          <mxGeometry x="250" y="500" width="120" height="60" as="geometry" />
        </mxCell>
        <mxCell id="vT6b_c9rovpt_9E858hW-55" value="Просмотр использования растения как яд" style="ellipse;whiteSpace=wrap;html=1;" parent="1" vertex="1">
          <mxGeometry x="140" y="465" width="120" height="60" as="geometry" />
        </mxCell>
        <mxCell id="vT6b_c9rovpt_9E858hW-58" value="«include»" style="edgeStyle=none;html=1;endArrow=open;verticalAlign=bottom;dashed=1;labelBackgroundColor=none;rounded=0;entryX=0;entryY=1;entryDx=0;entryDy=0;exitX=1;exitY=0;exitDx=0;exitDy=0;" parent="1" source="vT6b_c9rovpt_9E858hW-20" target="vT6b_c9rovpt_9E858hW-22" edge="1">
          <mxGeometry x="-1" y="14" width="160" relative="1" as="geometry">
            <mxPoint x="360" y="310" as="sourcePoint" />
            <mxPoint x="520" y="310" as="targetPoint" />
            <mxPoint x="-1" y="1" as="offset" />
          </mxGeometry>
        </mxCell>
        <mxCell id="vT6b_c9rovpt_9E858hW-59" value="«include»" style="edgeStyle=none;html=1;endArrow=open;verticalAlign=bottom;dashed=1;labelBackgroundColor=none;rounded=0;entryX=0;entryY=0.5;entryDx=0;entryDy=0;exitX=1;exitY=0.5;exitDx=0;exitDy=0;" parent="1" source="vT6b_c9rovpt_9E858hW-20" target="vT6b_c9rovpt_9E858hW-21" edge="1">
          <mxGeometry x="0.0036" y="15" width="160" relative="1" as="geometry">
            <mxPoint x="360" y="310" as="sourcePoint" />
            <mxPoint x="520" y="310" as="targetPoint" />
            <mxPoint as="offset" />
          </mxGeometry>
        </mxCell>
        <mxCell id="vT6b_c9rovpt_9E858hW-60" value="«include»" style="edgeStyle=none;html=1;endArrow=open;verticalAlign=bottom;dashed=1;labelBackgroundColor=none;rounded=0;exitX=1;exitY=0.5;exitDx=0;exitDy=0;" parent="1" source="vT6b_c9rovpt_9E858hW-23" target="vT6b_c9rovpt_9E858hW-52" edge="1">
          <mxGeometry x="0.3373" y="10" width="160" relative="1" as="geometry">
            <mxPoint x="360" y="310" as="sourcePoint" />
            <mxPoint x="520" y="310" as="targetPoint" />
            <mxPoint as="offset" />
          </mxGeometry>
        </mxCell>
        <mxCell id="vT6b_c9rovpt_9E858hW-61" value="«include»" style="edgeStyle=none;html=1;endArrow=open;verticalAlign=bottom;dashed=1;labelBackgroundColor=none;rounded=0;exitX=1;exitY=1;exitDx=0;exitDy=0;entryX=0.037;entryY=0.326;entryDx=0;entryDy=0;entryPerimeter=0;" parent="1" source="vT6b_c9rovpt_9E858hW-23" target="vT6b_c9rovpt_9E858hW-53" edge="1">
          <mxGeometry x="0.8896" y="9" width="160" relative="1" as="geometry">
            <mxPoint x="360" y="310" as="sourcePoint" />
            <mxPoint x="520" y="310" as="targetPoint" />
            <mxPoint y="-1" as="offset" />
          </mxGeometry>
        </mxCell>
        <mxCell id="vT6b_c9rovpt_9E858hW-62" value="«include»" style="edgeStyle=none;html=1;endArrow=open;verticalAlign=bottom;dashed=1;labelBackgroundColor=none;rounded=0;exitX=0.655;exitY=1.005;exitDx=0;exitDy=0;exitPerimeter=0;entryX=0.5;entryY=0;entryDx=0;entryDy=0;" parent="1" source="vT6b_c9rovpt_9E858hW-23" target="vT6b_c9rovpt_9E858hW-54" edge="1">
          <mxGeometry x="0.5885" y="11" width="160" relative="1" as="geometry">
            <mxPoint x="360" y="310" as="sourcePoint" />
            <mxPoint x="520" y="310" as="targetPoint" />
            <mxPoint as="offset" />
          </mxGeometry>
        </mxCell>
        <mxCell id="vT6b_c9rovpt_9E858hW-63" value="«include»" style="edgeStyle=none;html=1;endArrow=open;verticalAlign=bottom;dashed=1;labelBackgroundColor=none;rounded=0;exitX=0.5;exitY=1;exitDx=0;exitDy=0;entryX=0.5;entryY=0;entryDx=0;entryDy=0;" parent="1" source="vT6b_c9rovpt_9E858hW-23" target="vT6b_c9rovpt_9E858hW-55" edge="1">
          <mxGeometry x="1" y="-30" width="160" relative="1" as="geometry">
            <mxPoint x="360" y="310" as="sourcePoint" />
            <mxPoint x="520" y="310" as="targetPoint" />
            <mxPoint x="-3" y="8" as="offset" />
          </mxGeometry>
        </mxCell>
        <mxCell id="hFDyzH3SfQyi7N7eO2xq-5" value="«include»" style="edgeStyle=none;html=1;endArrow=open;verticalAlign=bottom;dashed=1;labelBackgroundColor=none;rounded=0;exitX=0.214;exitY=0.929;exitDx=0;exitDy=0;exitPerimeter=0;" edge="1" parent="1" source="vT6b_c9rovpt_9E858hW-20" target="vT6b_c9rovpt_9E858hW-33">
          <mxGeometry x="0.4383" y="24" width="160" relative="1" as="geometry">
            <mxPoint x="279" y="180" as="sourcePoint" />
            <mxPoint x="313" y="143" as="targetPoint" />
            <mxPoint as="offset" />
          </mxGeometry>
        </mxCell>
        <mxCell id="hFDyzH3SfQyi7N7eO2xq-6" value="«include»" style="edgeStyle=none;html=1;endArrow=open;verticalAlign=bottom;dashed=1;labelBackgroundColor=none;rounded=0;exitX=1;exitY=1;exitDx=0;exitDy=0;entryX=0.5;entryY=0;entryDx=0;entryDy=0;" edge="1" parent="1" source="vT6b_c9rovpt_9E858hW-20" target="vT6b_c9rovpt_9E858hW-24">
          <mxGeometry x="-0.2018" y="4" width="160" relative="1" as="geometry">
            <mxPoint x="230" y="240" as="sourcePoint" />
            <mxPoint x="223" y="308" as="targetPoint" />
            <mxPoint as="offset" />
          </mxGeometry>
        </mxCell>
        <mxCell id="hFDyzH3SfQyi7N7eO2xq-7" value="«include»" style="edgeStyle=none;html=1;endArrow=open;verticalAlign=bottom;dashed=1;labelBackgroundColor=none;rounded=0;entryX=0;entryY=0.5;entryDx=0;entryDy=0;" edge="1" parent="1" target="vT6b_c9rovpt_9E858hW-23">
          <mxGeometry x="-0.1685" y="28" width="160" relative="1" as="geometry">
            <mxPoint x="150" y="200" as="sourcePoint" />
            <mxPoint x="350" y="230" as="targetPoint" />
            <mxPoint as="offset" />
          </mxGeometry>
        </mxCell>
        <mxCell id="hFDyzH3SfQyi7N7eO2xq-8" value="«include»" style="edgeStyle=none;html=1;endArrow=open;verticalAlign=bottom;dashed=1;labelBackgroundColor=none;rounded=0;exitX=0.5;exitY=1;exitDx=0;exitDy=0;entryX=0.097;entryY=0.189;entryDx=0;entryDy=0;entryPerimeter=0;" edge="1" parent="1" source="vT6b_c9rovpt_9E858hW-20" target="vT6b_c9rovpt_9E858hW-25">
          <mxGeometry x="-0.3579" y="17" width="160" relative="1" as="geometry">
            <mxPoint x="230" y="240" as="sourcePoint" />
            <mxPoint x="227" y="308" as="targetPoint" />
            <mxPoint as="offset" />
          </mxGeometry>
        </mxCell>
      </root>
    </mxGraphModel>
  </diagram>
</mxfile>
